<?xml version="1.0" encoding="utf-8"?>
<!-- Generator: Adobe Illustrator 19.0.1, SVG Export Plug-In . SVG Version: 6.00 Build 0)  -->
<svg class="waldo_logo_svg" version="1.1" id="Layer_1" xmlns="http://www.w3.org/2000/svg" xmlns:xlink="http://www.w3.org/1999/xlink" x="0px" y="0px"
	 viewBox="0 0 145 50" style="enable-background:new 0 0 145 50;" xml:space="preserve">
<style type="text/css">
	.st0{fill:#999999;}
	.st1{fill:#FFFFFF;}
</style>
<g>
	<g>
		<path class="st1" d="M24.7,3.7C36.5,3.7,46,13.2,46,25s-9.5,21.3-21.3,21.3S3.4,36.8,3.4,25S13,3.7,24.7,3.7 M24.7,0.5
			c-3.3,0-6.5,0.6-9.5,1.9c-2.9,1.2-5.5,3-7.8,5.3c-2.2,2.2-4,4.9-5.3,7.8c-1.3,3-1.9,6.2-1.9,9.5s0.6,6.5,1.9,9.5
			c1.2,2.9,3,5.5,5.3,7.8c2.2,2.2,4.9,4,7.8,5.3c3,1.3,6.2,1.9,9.5,1.9s6.5-0.6,9.5-1.9c2.9-1.2,5.5-3,7.8-5.3
			c2.2-2.2,4-4.9,5.3-7.8c1.3-3,1.9-6.2,1.9-9.5s-0.6-6.5-1.9-9.5c-1.2-2.9-3-5.5-5.3-7.8c-2.2-2.2-4.9-4-7.8-5.3
			C31.2,1.1,28,0.5,24.7,0.5L24.7,0.5z"/>
		<g>
			<path class="st1" d="M9.4,14.6l7.9-2.2c0,0-0.8,2.9-0.6,6.7c0.1,3.8,1,6.4,1.9,7.3c1,1,3.7,0.1,3.7,0.1s-0.6-2.9-0.8-5.3
				c-0.3-2.4-0.3-4.1-0.3-4.1s3.1-1.2,4-1.5c0.9-0.3,1.7-0.4,2.1-0.3c0.4,0.1,0.5,0.5,0.7,0.7c0.1,0.1,0.3,3.5,0.7,5.9
				c0.4,2.2,1.3,4.1,2,4.9c0.7,0.9,1.5,1,2.3,0.8c0.7-0.2,1.1-1.1,1.2-2.1c0-1.1-0.1-4.1-0.5-7.1c-0.4-3.2-0.6-5-0.6-5
				s1.5-0.8,3-1.2c1.5-0.4,3.1-0.3,3.5,0c0.4,0.4,0.7,1.6,0.9,2.7c0.2,1.3,0.4,4,0.3,6.4s-1.2,5.4-2.2,6.1c-1.1,0.7-1,0.7-2,1.3
				C35,29.3,32.9,30.2,31,31s-2.9,1-3.8,0.8c-0.9-0.2-2.4-0.8-3.2-1.8c-0.5-0.7-1.3-1.8-1.3-1.8s-3.4,1-5.3,1.3
				c-1.2,0.2-3.6,0.5-5.1-0.8s-2.7-2.7-3.2-6.3C8.8,18.8,9.4,14.6,9.4,14.6z"/>
			<circle class="st1" cx="24.7" cy="38.7" r="4.6"/>
		</g>
	</g>
	<g>
		<g>
			<path class="st1" d="M59.4,27.6V9.3h6.3c2.3,0,4,0.4,5.3,1.3s1.9,2.1,1.9,3.8c0,0.9-0.2,1.6-0.6,2.3c-0.4,0.7-1,1.2-1.9,1.5
				c1.1,0.2,1.9,0.7,2.4,1.5c0.5,0.7,0.8,1.6,0.8,2.5c0,1.8-0.6,3.1-1.8,4c-1.2,0.9-2.9,1.4-5.1,1.4H59.4z M63.7,17h2.1
				c1,0,1.7-0.2,2.2-0.6c0.5-0.4,0.7-0.9,0.7-1.6c0-0.8-0.2-1.3-0.7-1.7c-0.5-0.4-1.2-0.5-2.2-0.5h-2V17z M63.7,19.8v4.6h2.9
				c0.9,0,1.6-0.2,2-0.5c0.5-0.4,0.7-0.9,0.7-1.6c0-0.8-0.2-1.4-0.6-1.8c-0.4-0.4-1-0.6-1.9-0.6H63.7z"/>
			<path class="st1" d="M85.7,24.1h-5.8l-1,3.6h-4.3l5.9-18.3H85L91,27.6h-4.3L85.7,24.1z M80.8,20.8h3.9l-1.9-6.5h-0.1L80.8,20.8z"
				/>
			<path class="st1" d="M107.7,9.3v18.3h-4.2v-15H99v4.9c0,3.7-0.5,6.3-1.6,7.8c-1.1,1.5-2.7,2.3-4.8,2.3h-1v-3.3H92
				c1.1-0.1,1.9-0.6,2.2-1.5c0.3-0.9,0.5-2.7,0.5-5.3V9.3H107.7z"/>
			<path class="st1" d="M124.1,27.6h-10.2l-4.1,0l-0.1-3.3h1.3c0.7-0.5,1.2-1.3,1.7-2.4s0.7-2.8,0.8-5.1l0.6-7.5h12.3v15h2l-0.2,3.3
				L124.1,27.6z M117.7,16.8c-0.1,1.8-0.3,3.3-0.6,4.5c-0.3,1.2-0.8,2.2-1.3,3h6.3V12.6h-4.1L117.7,16.8z"/>
			<path class="st1" d="M144.8,20.1c0,2.3-0.7,4.1-2.1,5.6c-1.4,1.5-3.3,2.2-5.6,2.2c-2.3,0-4.2-0.7-5.6-2.2
				c-1.4-1.5-2.2-3.3-2.2-5.6v-3.3c0-2.2,0.7-4.1,2.2-5.6c1.4-1.5,3.3-2.2,5.6-2.2c2.3,0,4.2,0.7,5.6,2.2c1.4,1.5,2.2,3.3,2.2,5.6
				V20.1z M140.6,16.8c0-1.3-0.3-2.4-0.9-3.2s-1.5-1.3-2.6-1.3c-1.1,0-2,0.4-2.6,1.2c-0.6,0.8-0.9,1.9-0.9,3.2v3.3
				c0,1.3,0.3,2.4,0.9,3.2c0.6,0.8,1.5,1.3,2.6,1.3c1.1,0,2-0.4,2.6-1.3c0.6-0.8,0.9-1.9,0.9-3.2V16.8z"/>
		</g>
		<path class="st1" d="M66.9,37.4L66.9,37.4c0,1-0.3,1.8-1,2.4s-1.6,0.9-2.7,0.9c-1.1,0-2-0.4-2.7-1.2s-1.1-1.8-1.1-3v-1.8
			c0-1.2,0.4-2.2,1.1-3s1.6-1.2,2.7-1.2s2,0.3,2.7,0.9c0.7,0.6,1,1.4,1,2.4l0,0h-1.3c0-0.7-0.2-1.2-0.6-1.6c-0.4-0.4-1-0.6-1.7-0.6
			c-0.7,0-1.3,0.3-1.8,0.9s-0.7,1.4-0.7,2.2v1.8c0,0.9,0.2,1.7,0.7,2.3s1,0.9,1.8,0.9c0.7,0,1.3-0.2,1.7-0.6c0.4-0.4,0.6-1,0.6-1.7
			H66.9z"/>
		<path class="st1" d="M77,35.7l2.6-5h1.5l-3.5,6.4v3.5h-1.3V37l-3.4-6.3h1.5L77,35.7z"/>
		<path class="st1" d="M95.2,30.7v9.9h-1.3v-8.9h-3.6l0,3.6c0,1.8-0.2,3.1-0.7,4s-1.2,1.3-2.3,1.3h-0.4v-1.1h0.3
			c0.6,0,1.1-0.3,1.4-1c0.3-0.6,0.4-1.7,0.4-3.2l0-4.7H95.2z"/>
		<path class="st1" d="M110,36h-1v4.6h-1.3V36h-1.1l-2.8,4.6h-1.7l3.3-5.2l-3-4.7h1.6l2.6,4.3h1.1v-4.3h1.3V35h1.1l2.6-4.3h1.6
			l-3,4.7l3.3,5.3h-1.7L110,36z"/>
		<path class="st1" d="M121.2,33.8L121.2,33.8c0-1,0.3-1.7,1-2.4c0.7-0.6,1.6-1,2.7-1c1.1,0,2,0.4,2.7,1.2c0.7,0.8,1.1,1.8,1.1,3
			v1.8c0,1.2-0.4,2.2-1.1,3c-0.7,0.8-1.6,1.2-2.7,1.2s-2-0.3-2.7-0.9s-1-1.4-1-2.4l0,0h1.3c0,0.7,0.2,1.3,0.6,1.7
			c0.4,0.4,1,0.6,1.7,0.6c0.7,0,1.3-0.3,1.8-0.9c0.4-0.6,0.7-1.3,0.7-2.2V36h-3.9v-1.1h3.9v-0.2c0-0.9-0.2-1.7-0.7-2.3
			c-0.4-0.6-1-0.9-1.8-0.9c-0.7,0-1.3,0.2-1.7,0.6c-0.4,0.4-0.6,1-0.6,1.7H121.2z"/>
		<path class="st1" d="M137.4,33.8L137.4,33.8c0-1,0.3-1.7,1-2.4c0.7-0.6,1.6-1,2.7-1c1.1,0,2,0.4,2.7,1.2c0.7,0.8,1.1,1.8,1.1,3
			v1.8c0,1.2-0.4,2.2-1.1,3c-0.7,0.8-1.6,1.2-2.7,1.2s-2-0.3-2.7-0.9s-1-1.4-1-2.4l0,0h1.3c0,0.7,0.2,1.3,0.6,1.7
			c0.4,0.4,1,0.6,1.7,0.6c0.7,0,1.3-0.3,1.8-0.9c0.4-0.6,0.7-1.3,0.7-2.2V36h-3.9v-1.1h3.9v-0.2c0-0.9-0.2-1.7-0.7-2.3
			c-0.4-0.6-1-0.9-1.8-0.9c-0.7,0-1.3,0.2-1.7,0.6c-0.4,0.4-0.6,1-0.6,1.7H137.4z"/>
	</g>
</g>
</svg>
