<?xml version="1.0" encoding="utf-8"?>
<!-- Generator: Adobe Illustrator 18.1.1, SVG Export Plug-In . SVG Version: 6.00 Build 0)  -->
<svg class="waldo_logo_svg" version="1.1" id="Layer_1" xmlns="http://www.w3.org/2000/svg" xmlns:xlink="http://www.w3.org/1999/xlink" x="0px" y="0px"
	 viewBox="0 0 145 50" enable-background="new 0 0 145 50" xml:space="preserve">
<g>
	<g>
		<path fill="#FFFFFF" d="M25.2,3.7c11.8,0,21.3,9.5,21.3,21.3s-9.5,21.3-21.3,21.3S3.9,36.8,3.9,25S13.4,3.7,25.2,3.7 M25.2,0.5
			c-3.3,0-6.5,0.6-9.5,1.9c-2.9,1.2-5.5,3-7.8,5.3c-2.2,2.2-4,4.9-5.3,7.8c-1.3,3-1.9,6.2-1.9,9.5s0.6,6.5,1.9,9.5
			c1.2,2.9,3,5.5,5.3,7.8c2.2,2.2,4.9,4,7.8,5.3c3,1.3,6.2,1.9,9.5,1.9s6.5-0.6,9.5-1.9c2.9-1.2,5.5-3,7.8-5.3
			c2.2-2.2,4-4.9,5.3-7.8c1.3-3,1.9-6.2,1.9-9.5s-0.6-6.5-1.9-9.5c-1.2-2.9-3-5.5-5.3-7.8c-2.2-2.2-4.9-4-7.8-5.3
			C31.7,1.1,28.5,0.5,25.2,0.5L25.2,0.5z"/>
		<g>
			<path fill="#FFFFFF" d="M9.9,14.6l7.9-2.2c0,0-0.8,2.9-0.6,6.7c0.1,3.8,1,6.4,1.9,7.3c1,1,3.7,0.1,3.7,0.1s-0.6-2.9-0.8-5.3
				c-0.3-2.4-0.3-4.1-0.3-4.1s3.1-1.2,4-1.5c0.9-0.3,1.7-0.4,2.1-0.3c0.4,0.1,0.5,0.5,0.7,0.7c0.1,0.1,0.3,3.5,0.7,5.9
				c0.4,2.2,1.3,4.1,2,4.9c0.7,0.9,1.5,1,2.3,0.8c0.7-0.2,1.1-1.1,1.2-2.1c0-1.1-0.1-4.1-0.5-7.1c-0.4-3.2-0.6-5-0.6-5
				s1.5-0.8,3-1.2c1.5-0.4,3.1-0.3,3.5,0c0.4,0.4,0.7,1.6,0.9,2.7c0.2,1.3,0.4,4,0.3,6.4c-0.1,2.4-1.2,5.4-2.2,6.1
				c-1.1,0.7-1,0.7-2,1.3c-1.1,0.6-3.1,1.5-5.1,2.3s-2.9,1-3.8,0.8c-0.9-0.2-2.4-0.8-3.2-1.8c-0.5-0.7-1.3-1.8-1.3-1.8
				s-3.4,1-5.3,1.3c-1.2,0.2-3.6,0.5-5.1-0.8s-2.7-2.7-3.2-6.3C9.2,18.8,9.9,14.6,9.9,14.6z"/>
			<circle fill="#FFFFFF" cx="25.2" cy="38.7" r="4.6"/>
		</g>
	</g>
	<g>
		<g>
			<path fill="#FFFFFF" d="M74.6,21.3L74.6,21.3l2.5-12h4.1L77,27.6h-4l-3.1-11.3h-0.1l-3,11.3h-4L58.6,9.3h4.1l2.4,12h0.1l3.2-12h3
				L74.6,21.3z"/>
			<path fill="#FFFFFF" d="M91.9,24.1h-5.8l-1,3.6h-4.3l5.9-18.3h4.6l5.9,18.3h-4.3L91.9,24.1z M87.1,20.8H91l-1.9-6.5H89L87.1,20.8
				z"/>
			<path fill="#FFFFFF" d="M102.8,24.4h7.9v3.3H98.5V9.3h4.3V24.4z"/>
			<path fill="#FFFFFF" d="M112.4,27.6V9.3h6.6c2.2,0,4,0.7,5.4,2.1c1.4,1.4,2.2,3.2,2.2,5.4v3.3c0,2.2-0.7,4-2.2,5.4
				c-1.4,1.4-3.2,2.1-5.4,2.1H112.4z M116.7,12.6v11.7h2.1c1.1,0,2-0.4,2.6-1.2c0.6-0.8,1-1.8,1-3.1v-3.3c0-1.3-0.3-2.3-1-3
				s-1.5-1.2-2.6-1.2H116.7z"/>
			<path fill="#FFFFFF" d="M144.3,20.1c0,2.3-0.7,4.1-2.1,5.6c-1.4,1.5-3.3,2.2-5.6,2.2c-2.3,0-4.2-0.7-5.6-2.2
				c-1.4-1.5-2.2-3.3-2.2-5.6v-3.3c0-2.2,0.7-4.1,2.2-5.6c1.4-1.5,3.3-2.2,5.6-2.2c2.3,0,4.2,0.7,5.6,2.2c1.4,1.5,2.2,3.3,2.2,5.6
				V20.1z M140.1,16.8c0-1.3-0.3-2.4-0.9-3.2c-0.6-0.8-1.5-1.3-2.6-1.3c-1.1,0-2,0.4-2.6,1.2c-0.6,0.8-0.9,1.9-0.9,3.2v3.3
				c0,1.3,0.3,2.4,0.9,3.2c0.6,0.8,1.5,1.3,2.6,1.3c1.1,0,2-0.4,2.6-1.3c0.6-0.8,0.9-1.9,0.9-3.2V16.8z"/>
		</g>
		<g>
			<path fill="#FFFFFF" d="M70.6,40.6h-1.3l-4.8-7.7l0,0v7.7h-1.3v-9.9h1.3l4.8,7.7l0,0v-7.6h1.3V40.6z"/>
			<path fill="#FFFFFF" d="M81.2,36h-4.5v3.5h5.2v1.1h-6.6v-9.9h6.5v1.1h-5.2v3.2h4.5V36z"/>
			<path fill="#FFFFFF" d="M92.6,31.7h-3.2v8.9H88v-8.9h-3.2v-1.1h7.7V31.7z"/>
			<path fill="#FFFFFF" d="M98.3,37.2l0.2,1.2l0,0l0.3-1.2l1.8-6.5h1.2l1.8,6.5l0.3,1.3h0l0.2-1.3l1.5-6.5h1.3l-2.4,9.9h-1.2l-2-6.9
				l-0.2-0.9h0l-0.2,0.9l-2,6.9h-1.2l-2.4-9.9h1.3L98.3,37.2z"/>
			<path fill="#FFFFFF" d="M118.4,36.5c0,1.2-0.4,2.2-1.1,3c-0.8,0.8-1.7,1.2-2.9,1.2c-1.2,0-2.1-0.4-2.8-1.2
				c-0.7-0.8-1.1-1.8-1.1-3v-1.8c0-1.2,0.4-2.2,1.1-3c0.7-0.8,1.7-1.2,2.8-1.2c1.2,0,2.2,0.4,2.9,1.2c0.8,0.8,1.1,1.8,1.1,3V36.5z
				 M117.1,34.7c0-0.9-0.2-1.7-0.7-2.2c-0.5-0.6-1.1-0.9-2-0.9c-0.8,0-1.4,0.3-1.9,0.9c-0.5,0.6-0.7,1.3-0.7,2.2v1.8
				c0,0.9,0.2,1.7,0.7,2.2c0.5,0.6,1.1,0.9,1.9,0.9c0.8,0,1.5-0.3,2-0.9c0.5-0.6,0.7-1.3,0.7-2.3V34.7z"/>
			<path fill="#FFFFFF" d="M124,36.3v4.3h-1.3v-9.9h3.6c1.1,0,1.9,0.2,2.5,0.7c0.6,0.5,0.9,1.2,0.9,2.1c0,0.5-0.1,1-0.4,1.3
				c-0.3,0.4-0.7,0.7-1.2,0.9c0.5,0.2,0.9,0.5,1.2,0.9c0.2,0.4,0.4,0.9,0.4,1.5V39c0,0.3,0,0.6,0.1,0.8c0.1,0.2,0.2,0.4,0.4,0.6v0.2
				h-1.4c-0.2-0.2-0.3-0.4-0.3-0.7c0-0.3-0.1-0.6-0.1-0.9v-0.9c0-0.5-0.2-1-0.5-1.3c-0.3-0.3-0.7-0.5-1.3-0.5H124z M124,35.2h2.1
				c0.8,0,1.3-0.1,1.6-0.4c0.3-0.3,0.5-0.7,0.5-1.3c0-0.6-0.2-1-0.5-1.3c-0.3-0.3-0.8-0.5-1.5-0.5H124V35.2z"/>
			<path fill="#FFFFFF" d="M136.6,36.1h-1.2v4.5h-1.3v-9.9h1.3v4.4h1l3.5-4.4h1.5l0,0l-3.8,4.8l4.1,5.1l0,0h-1.6L136.6,36.1z"/>
		</g>
	</g>
</g>
</svg>
