<?xml version="1.0" encoding="utf-8"?>
<!-- Generator: Adobe Illustrator 19.0.1, SVG Export Plug-In . SVG Version: 6.00 Build 0)  -->
<svg class="waldo_logo_svg" version="1.1" id="Layer_1" xmlns="http://www.w3.org/2000/svg" xmlns:xlink="http://www.w3.org/1999/xlink" x="0px" y="0px"
	 viewBox="0 0 50 50" style="enable-background:new 0 0 50 50;" xml:space="preserve">
<style type="text/css">
	.st0{fill:#FFFFFF;}
</style>
<g>
	<path class="st0" d="M25,3.7c11.8,0,21.3,9.5,21.3,21.3S36.8,46.3,25,46.3S3.7,36.8,3.7,25S13.3,3.7,25,3.7 M25,0.5
		c-3.3,0-6.5,0.6-9.5,1.9c-2.9,1.2-5.5,3-7.8,5.3c-2.2,2.2-4,4.9-5.3,7.8c-1.3,3-1.9,6.2-1.9,9.5s0.6,6.5,1.9,9.5
		c1.2,2.9,3,5.5,5.3,7.8c2.2,2.2,4.9,4,7.8,5.3c3,1.3,6.2,1.9,9.5,1.9s6.5-0.6,9.5-1.9c2.9-1.2,5.5-3,7.8-5.3c2.2-2.2,4-4.9,5.3-7.8
		c1.3-3,1.9-6.2,1.9-9.5s-0.6-6.5-1.9-9.5c-1.2-2.9-3-5.5-5.3-7.8c-2.2-2.2-4.9-4-7.8-5.3C31.5,1.1,28.3,0.5,25,0.5L25,0.5z"/>
	<g>
		<path class="st0" d="M9.7,14.6l7.9-2.2c0,0-0.8,2.9-0.6,6.7c0.1,3.8,1,6.4,1.9,7.3c1,1,3.7,0.1,3.7,0.1s-0.6-2.9-0.8-5.3
			c-0.3-2.4-0.3-4.1-0.3-4.1s3.1-1.2,4-1.5s1.7-0.4,2.1-0.3c0.4,0.1,0.5,0.5,0.7,0.7c0.1,0.1,0.3,3.5,0.7,5.9c0.4,2.2,1.3,4.1,2,4.9
			c0.7,0.9,1.5,1,2.3,0.8c0.7-0.2,1.1-1.1,1.2-2.1c0-1.1-0.1-4.1-0.5-7.1c-0.4-3.2-0.6-5-0.6-5s1.5-0.8,3-1.2s3.1-0.3,3.5,0
			c0.4,0.4,0.7,1.6,0.9,2.7c0.2,1.3,0.4,4,0.3,6.4s-1.2,5.4-2.2,6.1c-1.1,0.7-1,0.7-2,1.3c-1.6,0.6-3.7,1.5-5.6,2.3s-2.9,1-3.8,0.8
			S25.1,31,24.3,30c-0.5-0.7-1.3-1.8-1.3-1.8s-3.4,1-5.3,1.3c-1.2,0.2-3.6,0.5-5.1-0.8S9.9,26,9.4,22.4C9.1,18.8,9.7,14.6,9.7,14.6z
			"/>
		<circle class="st0" cx="25" cy="38.7" r="4.6"/>
	</g>
</g>
</svg>
