<?xml version="1.0" encoding="utf-8"?>
<!-- Generator: Adobe Illustrator 16.0.0, SVG Export Plug-In . SVG Version: 6.00 Build 0)  -->
<!DOCTYPE svg PUBLIC "-//W3C//DTD SVG 1.1//EN" "http://www.w3.org/Graphics/SVG/1.1/DTD/svg11.dtd">
<svg version="1.1" id="Layer_1" xmlns="http://www.w3.org/2000/svg" xmlns:xlink="http://www.w3.org/1999/xlink" x="0px" y="0px"
	 width="24px" height="24px" viewBox="0 0 24 24" enable-background="new 0 0 24 24" xml:space="preserve">
<g>
	<g>
		<path d="M2.5,20.057c-0.116,0-0.232-0.051-0.312-0.149c-0.139-0.172-0.111-0.424,0.061-0.563l19-15.313
			c0.171-0.139,0.423-0.112,0.563,0.061c0.139,0.172,0.111,0.424-0.061,0.563l-19,15.313C2.677,20.028,2.588,20.057,2.5,20.057z"/>
	</g>
	<path d="M19.267,9.233h-0.385V8.849c0-0.27-0.032-0.532-0.08-0.789L7.09,17.499h12.177c2.279,0,4.134-1.854,4.134-4.133
		S21.546,9.233,19.267,9.233z"/>
	<path d="M14.536,4.501c-1.174,0-2.313,0.479-3.168,1.368c-0.071,0.104-0.185,0.168-0.416,0.158
		c-0.461-0.116-0.94-0.176-1.427-0.176c-3.211,0-5.824,2.613-5.824,5.825v0.385H3.316c-1.498,0-2.717,1.221-2.717,2.72
		c0,1.482,1.194,2.688,2.672,2.713l14.418-11.62C16.896,5.033,15.78,4.501,14.536,4.501z"/>
</g>
</svg>
