<svg version="1.1" id="Layer_1" xmlns="http://www.w3.org/2000/svg" xmlns:xlink="http://www.w3.org/1999/xlink" x="0px" y="0px"
	 viewBox="0 0 50 50" enable-background="new 0 0 50 50" xml:space="preserve">
<g>
	<path fill="#000" d="M25,3.3c12,0,21.7,9.7,21.7,21.7S37,46.7,25,46.7S3.3,37,3.3,25S13,3.3,25,3.3 M25,0c-3.4,0-6.6,0.7-9.7,2
		c-3,1.3-5.7,3.1-7.9,5.4C5,9.7,3.2,12.3,2,15.3c-1.3,3.1-2,6.4-2,9.7s0.7,6.6,2,9.7c1.3,3,3.1,5.7,5.4,7.9c2.3,2.3,5,4.1,7.9,5.4
		c3.1,1.3,6.4,2,9.7,2s6.6-0.7,9.7-2c3-1.3,5.7-3.1,7.9-5.4c2.3-2.3,4.1-5,5.4-7.9c1.3-3.1,2-6.4,2-9.7s-0.7-6.6-2-9.7
		c-1.3-3-3.1-5.7-5.4-7.9c-2.3-2.3-5-4.1-7.9-5.4C31.7,0.7,28.4,0,25,0L25,0z"/>
	<g>
		<path fill="#000" d="M9.4,14.4l8-2.3c0,0-0.8,2.9-0.6,6.8c0.1,3.9,1,6.5,1.9,7.5c1,1,3.7,0.1,3.7,0.1s-0.6-2.9-0.9-5.4
			S21.2,17,21.2,17s3.1-1.2,4-1.5s1.8-0.4,2.1-0.3c0.4,0.1,0.6,0.5,0.7,0.7c0.1,0.2,0.3,3.6,0.7,6c0.4,2.3,1.3,4.2,2,5
			c0.8,0.9,1.5,1,2.3,0.8c0.8-0.2,1.2-1.1,1.2-2.1c0-1.1-0.1-4.2-0.5-7.3c-0.5-3.2-0.6-5.1-0.6-5.1s1.5-0.8,3-1.2
			c1.6-0.4,3.1-0.3,3.5,0c0.4,0.4,0.8,1.6,0.9,2.7c0.2,1.3,0.4,4.1,0.3,6.5s-1.2,5.5-2.3,6.3c-1.1,0.7-1,0.7-2.1,1.3
			c-1.1,0.6-3.2,1.6-5.2,2.4c-2,0.8-3,1-3.9,0.8c-0.9-0.2-2.4-0.8-3.3-1.9c-0.5-0.7-1.3-1.9-1.3-1.9s-3.5,1-5.4,1.4
			c-1.2,0.2-3.6,0.5-5.2-0.9c-1.5-1.4-2.8-2.8-3.2-6.4S9.4,14.4,9.4,14.4z"/>
		<circle fill="#000" cx="25" cy="39" r="4.7"/>
	</g>
</g>
</svg>
