<?xml version="1.0" encoding="utf-8"?>
<!-- Generator: Adobe Illustrator 19.2.0, SVG Export Plug-In . SVG Version: 6.00 Build 0)  -->
<svg version="1.1" id="Layer_1" xmlns="http://www.w3.org/2000/svg" xmlns:xlink="http://www.w3.org/1999/xlink" x="0px" y="0px"
	 viewBox="0 0 24 24" style="enable-background:new 0 0 24 24;" xml:space="preserve">
<g>
	<path d="M12,9c-0.1,0-0.1,0-0.2,0l3.2,3.2c0-0.1,0-0.1,0-0.2C15,10.3,13.7,9,12,9z"/>
	<path d="M10.8,8H17c0,1.1,0.9,2,2,2v4c-0.6,0-1.1,0.3-1.5,0.7l3.3,3.3H21V6H8.8L10.8,8z"/>
	<path d="M3.9,3.9L3.9,3.9L3.9,3.9L2.5,5.3L3.2,6H3v12h12.2l3.5,3.5l1.4-1.4L3.9,3.9z M7,16c0-1.1-0.9-2-2-2v-4
		c0.6,0,1.1-0.3,1.5-0.7L9,11.8c0,0.1,0,0.1,0,0.2c0,1.7,1.3,3,3,3c0.1,0,0.1,0,0.2,0l1,1H7z"/>
</g>
</svg>
