<?xml version="1.0" encoding="utf-8"?>
<!-- Generator: Adobe Illustrator 19.2.0, SVG Export Plug-In . SVG Version: 6.00 Build 0)  -->
<svg version="1.1" id="Layer_1" xmlns="http://www.w3.org/2000/svg" xmlns:xlink="http://www.w3.org/1999/xlink" x="0px" y="0px"
	 viewBox="0 0 24 24" style="enable-background:new 0 0 24 24;" xml:space="preserve">
<circle cx="14" cy="11.5" r="1"/>
<circle cx="10.5" cy="18" r="0.5"/>
<circle cx="13.5" cy="18" r="0.5"/>
<g>
	<path d="M3.9,3.9L3.9,3.9L3.9,3.9L2.5,5.3l2,2C3.5,7.2,2.3,7.4,2.1,8c-0.2,0.8,1.3,2,2.3,2.2c0.5,0.1,1.2,0.1,1.7,0L6,11.5
		c0,1.3,0.5,2.6,1.2,3.6C6.5,15.8,6,16.6,6,17.5c0,2.2,2.7,4,6,4c2.1,0,3.9-0.7,5-1.8l1.8,1.8l1.4-1.4L3.9,3.9z M8.1,10.9l1,1
		c0.1,0.3,0.3,0.5,0.6,0.6l1.2,1.2c-0.7,0.1-1.3,0.2-1.9,0.5C8.3,13.4,8,12.5,8,11.5C8,11.3,8,11.1,8.1,10.9z M12,19.5
		c-2.2,0-4-0.9-4-2s1.8-2,4-2c0.3,0,0.5,0,0.8,0l2.8,2.8C14.9,19,13.6,19.5,12,19.5z"/>
	<path d="M21.9,8c-0.2-0.8-2.1-1-3.2-0.6c-0.6,0.2-1.2,0.6-1.6,1.1l-0.6-0.8C17.2,6.5,17,3.5,14,2.5l0.1,0.1c0.3,0.4,1,1.8,0.2,3.3
		c-0.7-0.3-1.5-0.5-2.3-0.5S10.4,5.7,9.7,6c-0.8-1.5,0-2.9,0.2-3.3L10,2.5C8.7,2.9,7.9,3.8,7.5,4.7l3.1,3.1C11,7.6,11.5,7.5,12,7.5
		c2.2,0,4,1.8,4,4c0,0.5-0.1,1-0.3,1.4l1.5,1.5c0.5-0.9,0.8-1.9,0.8-2.9l-0.1-1.2c0.5,0.1,1.2,0.1,1.7,0C20.6,10,22.2,8.8,21.9,8z"
		/>
</g>
</svg>
