<?xml version="1.0" encoding="utf-8"?>
<!-- Generator: Adobe Illustrator 19.2.0, SVG Export Plug-In . SVG Version: 6.00 Build 0)  -->
<svg version="1.1" id="Layer_1" xmlns="http://www.w3.org/2000/svg" xmlns:xlink="http://www.w3.org/1999/xlink" x="0px" y="0px"
	 viewBox="0 0 24 24" style="enable-background:new 0 0 24 24;" xml:space="preserve">
<g>
	<path d="M6.8,4h11.1l0.9,1H7.8L21,18.2V6.5c0-0.5-0.2-0.9-0.5-1.3l-1.4-1.7C18.9,3.2,18.5,3,18,3H6C5.9,3,5.9,3,5.8,3L6.8,4z"/>
	<path d="M2.9,2.9L2.9,2.9L2.9,2.9L1.5,4.3l1.6,1.6C3,6.1,3,6.3,3,6.5V19c0,1.1,0.9,2,2,2h13.2l1.5,1.5l1.4-1.4L2.9,2.9z M12,18H6
		v-3h6V18z"/>
</g>
</svg>
