<?xml version="1.0" encoding="utf-8"?>
<!-- Generator: Adobe Illustrator 19.2.0, SVG Export Plug-In . SVG Version: 6.00 Build 0)  -->
<svg version="1.1" id="Layer_1" xmlns="http://www.w3.org/2000/svg" xmlns:xlink="http://www.w3.org/1999/xlink" x="0px" y="0px"
	 viewBox="0 0 24 24" style="enable-background:new 0 0 24 24;" xml:space="preserve">
<style type="text/css">
	.st0{fill:none;}
</style>
<path class="st0" d="M0,0h24v24H0V0z"/>
<g>
	<ellipse cx="16.5" cy="9.5" rx="2.5" ry="2.5"/>
	<path d="M16.8,14l4.7,4.7L21.3,19H22v-2.3C22,15,18.7,14.1,16.8,14z"/>
	<path d="M12,8c0-1.7-1.3-3-3-3C8.6,5,8.3,5.1,8,5.2L11.8,9C11.9,8.7,12,8.4,12,8z"/>
	<path d="M3.9,3.9L3.9,3.9L2.5,5.3L6.2,9c0.3,0.9,1,1.6,1.9,1.9l2.3,2.3C9.8,13,9.4,13,9,13c-2.3,0-7,1.2-7,3.5V19h7v-2.3
		c0-0.8,0.3-2.1,1.8-3.1l1.4,1.4c-0.8,0.4-1.3,1-1.3,1.7V19h5.2l2.5,2.5l1.4-1.4L3.9,3.9L3.9,3.9z"/>
</g>
</svg>
