<?xml version="1.0" encoding="utf-8"?>
<!-- Generator: Adobe Illustrator 19.2.0, SVG Export Plug-In . SVG Version: 6.00 Build 0)  -->
<svg version="1.1" id="Layer_1" xmlns="http://www.w3.org/2000/svg" xmlns:xlink="http://www.w3.org/1999/xlink" x="0px" y="0px"
	 viewBox="0 0 24 24" style="enable-background:new 0 0 24 24;" xml:space="preserve">
<path d="M22.8,5.3L1.1,8.4C0.8,8.5,0.7,8.8,0.9,9l3.4,1.9l0.7,7.4c0,0,0,0.1,0,0.1c0,0,0.1,0.2,0.1,0.2c0,0.1,0.1,0.1,0.1,0.1
	c0,0,0,0,0,0c0.1,0,0.1,0,0.2,0.1c0,0,0,0,0.1,0c0.1,0,0.2,0,0.3-0.1l4.6-3.1l3.6,2.4c0.1,0.1,0.3,0.1,0.4,0l8.6-12
	C23.3,5.6,23.1,5.3,22.8,5.3z M6.8,13l-0.9,2.8L5.4,11l13.1-3.7L6.8,13z M6.5,16.9l1.1-3.3l1.9,1.3L6.5,16.9z"/>
</svg>
