<?xml version="1.0" ?><!DOCTYPE svg  PUBLIC '-//W3C//DTD SVG 1.1//EN'  'http://www.w3.org/Graphics/SVG/1.1/DTD/svg11.dtd'><svg height="512px" id="Слой_1" style="enable-background:new 0 0 512 512;" version="1.1" viewBox="0 0 512 512" width="512px" xml:space="preserve" xmlns="http://www.w3.org/2000/svg" xmlns:xlink="http://www.w3.org/1999/xlink"><path d="M456,506H56c-27.617,0-50-22.392-50-50V56  C6,28.383,28.383,6,56,6h400c27.618,0,50,22.383,50,50v400C506,483.608,483.618,506,456,506z M438.09,106.283  c0,0-34.16,18.467-48.008,20.313c-31.396-48.018-148.671-27.705-128.349,65.557c-102.49,0.927-157.901-76.641-157.901-76.641  s-35.087,55.41,22.159,100.644c-11.084,0.928-32.315-6.455-32.315-6.455s-8.31,48.018,58.164,72.022  c-6.455,8.31-33.232,2.773-33.232,2.773s7.383,41.543,68.33,53.555C145.385,376.83,73.364,364.828,77.973,368.52  c60.02,55.4,328.73,67.402,331.504-189.287c13.848-4.619,38.769-42.481,38.769-42.481s-37.851,11.084-40.625,10.156  C437.172,129.36,438.09,106.283,438.09,106.283z" id="twitter_2_" style="fill-rule:evenodd;clip-rule:evenodd;fill:#3B3A39;"/></svg>