<?xml version="1.0" encoding="utf-8"?>
<!-- Generator: Adobe Illustrator 16.0.4, SVG Export Plug-In . SVG Version: 6.00 Build 0)  -->
<!DOCTYPE svg PUBLIC "-//W3C//DTD SVG 1.1//EN" "http://www.w3.org/Graphics/SVG/1.1/DTD/svg11.dtd">
<svg version="1.1" id="Layer_1" xmlns="http://www.w3.org/2000/svg" xmlns:xlink="http://www.w3.org/1999/xlink" x="0px" y="0px"
	 width="50px" height="50px" viewBox="0 0 50 50" enable-background="new 0 0 50 50" xml:space="preserve">
<path d="M37.946,38H25.896l4.363-4.363l-1.365-1.363h1.964l-2.461-2.461C33.896,30.352,37.946,32.445,37.946,38z M21.105,32.271
	h-1.963l2.46-2.459c-5.5,0.539-9.549,2.633-9.549,8.188h12.051l-4.362-4.363L21.105,32.271z M29.904,20.943
	c-0.178,2.444-1.22,5.298-2.718,6.829h5.788v-6.457c0-6.751-3.57-9.315-7.974-9.315c-4.404,0-7.975,2.564-7.975,9.315v6.457h5.788
	c-1.448-1.48-2.478-4.202-2.705-6.59l0.058-0.004c2.49,0,4.643-1.031,5.825-2.553C26.855,19.737,28.243,20.57,29.904,20.943z"/>
</svg>
